<?xml version="1.0" encoding="UTF-8" standalone="no"?>
<!-- Created with Inkscape (http://www.inkscape.org/) -->

<svg
   width="60.264584mm"
   height="60.264584mm"
   viewBox="0 0 60.264584 60.264584"
   version="1.1"
   id="svg28089"
   sodipodi:docname="p3_v2_light_path.svg"
   inkscape:version="1.1.1 (3bf5ae0d25, 2021-09-20)"
   xmlns:inkscape="http://www.inkscape.org/namespaces/inkscape"
   xmlns:sodipodi="http://sodipodi.sourceforge.net/DTD/sodipodi-0.dtd"
   xmlns="http://www.w3.org/2000/svg"
   xmlns:svg="http://www.w3.org/2000/svg">
  <sodipodi:namedview
     id="namedview920"
     pagecolor="#ffffff"
     bordercolor="#666666"
     borderopacity="1.0"
     inkscape:pageshadow="2"
     inkscape:pageopacity="0.0"
     inkscape:pagecheckerboard="0"
     inkscape:document-units="mm"
     showgrid="false"
     showguides="false"
     inkscape:zoom="2.9283714"
     inkscape:cx="113.71508"
     inkscape:cy="113.88583"
     inkscape:window-width="1920"
     inkscape:window-height="1175"
     inkscape:window-x="0"
     inkscape:window-y="0"
     inkscape:window-maximized="1"
     inkscape:current-layer="svg28089" />
  <defs
     id="defs28086" />
  <rect
     style="fill:#ffffff;fill-opacity:1;fill-rule:evenodd;stroke:#000000;stroke-width:0.264583;stroke-miterlimit:4;stroke-dasharray:none;stroke-opacity:1"
     id="rect21316-0"
     width="60"
     height="60"
     x="0.13228521"
     y="0.13229586" />
  <g
     aria-label="P3"
     id="text2036-3"
     style="font-size:56.4444px;line-height:1.25;letter-spacing:-5.8286px;fill:#1b1b1b;stroke-width:0.299825">
    <path
       d="m 11.259817,16.365712 v 12.071606 h 3.33485 q 3.996307,0 5.594831,-1.350477 1.626083,-1.350476 1.626083,-4.685326 0,-3.33485 -1.626083,-4.685326 -1.598524,-1.350477 -5.594831,-1.350477 z M 3.1293979,9.5306482 H 14.291499 q 8.516269,0 12.236969,3.0316818 3.748261,3.031682 3.748261,9.839185 0,6.807503 -3.748261,9.839185 -3.7207,3.031682 -12.236969,3.031682 H 11.259817 V 50.678837 H 3.1293979 Z"
       style="font-weight:bold;font-family:monospace;-inkscape-font-specification:'monospace Bold'"
       id="path986" />
    <path
       d="M 41.9492,32.268261 H 37.594603 V 25.102468 H 41.9492 q 3.031682,0 4.685327,-1.185112 1.681205,-1.212673 1.681205,-3.389972 0,-2.287541 -1.681205,-3.555335 -1.653645,-1.295355 -4.685327,-1.295355 -2.315102,0 -4.960933,0.578775 -2.645831,0.578776 -5.484588,1.681206 v -7.386279 q 2.838757,-0.8543834 5.594831,-1.2953553 2.756074,-0.4685326 5.291662,-0.4685326 6.504336,0 10.142354,2.8387569 3.638018,2.838756 3.638018,7.82725 0,3.665579 -2.094617,6.008242 -2.094616,2.315103 -5.980681,3.031682 4.409719,0.771701 6.724821,3.527775 2.315103,2.728514 2.315103,7.193354 0,5.980681 -3.830944,9.122606 -3.830943,3.141924 -11.13454,3.141924 -3.114363,0 -6.146045,-0.523654 Q 33.01952,50.43079 30.263446,49.438603 V 41.88696 q 2.590709,1.295355 5.59483,1.984373 3.004121,0.661458 6.31141,0.661458 3.30729,0 5.236542,-1.515841 1.929251,-1.543401 1.929251,-4.134111 0,-3.169485 -1.929251,-4.878251 -1.929252,-1.736327 -5.457028,-1.736327 z"
       style="font-weight:bold;font-family:monospace;-inkscape-font-specification:'monospace Bold'"
       id="path988" />
  </g>
</svg>
